<svg id="OBJECTS" xmlns="http://www.w3.org/2000/svg" viewBox="0 0 325.52 84.5"><defs><style>.cls-1,.cls-3{fill:#6979ff;}.cls-2{fill:#fff;}.cls-3{font-size:53.83px;font-family:Nunito-ExtraBoldItalic, Nunito;font-weight:800;font-style:italic;}.cls-4{letter-spacing:0em;}.cls-5{letter-spacing:0em;}.cls-6{letter-spacing:-0.01em;}</style></defs><path class="cls-1" d="M176.47,275.42c0,30.2-34.26,50.24-34.26,50.24a96.35,96.35,0,0,1-21.71-19.28c-6.8-8.33-12.56-18.94-12.56-31a34.27,34.27,0,1,1,68.53,0Z" transform="translate(-107.94 -241.16)"/><path class="cls-2" d="M122.06,286.22h5a17.65,17.65,0,0,0,32.68-6.84H120.21c-.07-.73-.11-1.47-.11-2.21a22.09,22.09,0,0,1,39.59-13.5h5.45a26.61,26.61,0,0,0-48,22.55Z" transform="translate(-107.94 -241.16)"/><path class="cls-2" d="M162.36,268.11h-5A17.65,17.65,0,0,0,124.69,275h39.52c.07.73.11,1.47.11,2.22a22.09,22.09,0,0,1-39.59,13.49h-5.46a26.62,26.62,0,0,0,48-22.55Z" transform="translate(-107.94 -241.16)"/><text class="cls-3" transform="translate(73.11 62.92)">Seu<tspan class="cls-4" x="95.82" y="0">E</tspan><tspan class="cls-5" x="128.28" y="0">di</tspan><tspan class="cls-6" x="175.54" y="0">t</tspan><tspan class="cls-5" x="197.01" y="0">or</tspan></text></svg>